<?xml version="1.0" standalone="no"?>
<!DOCTYPE svg PUBLIC "-//W3C//DTD SVG 20010904//EN"
 "http://www.w3.org/TR/2001/REC-SVG-20010904/DTD/svg10.dtd">
<svg version="1.0" xmlns="http://www.w3.org/2000/svg"
 width="700.000000pt" height="700.000000pt" viewBox="0 0 700.000000 700.000000"
 preserveAspectRatio="xMidYMid meet">
<metadata>
Created by potrace 1.14, written by Peter Selinger 2001-2017
</metadata>
<g transform="translate(0.000000,700.000000) scale(0.100000,-0.100000)"
fill="#000000" stroke="none">
<path d="M4849 4787 c0 -1112 -2 -2033 -3 -2047 -1 -14 -6 -68 -10 -120 -5
-52 -16 -136 -26 -185 -80 -395 -264 -428 -570 -101 -41 44 -413 420 -827 836
l-752 755 4 -560 c2 -308 4 -752 5 -986 l2 -427 55 -58 c85 -90 468 -487 653
-677 500 -513 707 -690 946 -810 171 -86 302 -115 529 -115 125 0 189 5 298
23 51 9 180 45 199 55 10 6 22 10 28 10 19 0 164 72 235 118 220 140 393 353
499 616 35 87 72 209 82 274 3 20 7 39 9 42 17 27 20 493 20 2760 l0 2615
-687 2 -688 2 -1 -2022z"/>
<path d="M2028 6765 c-2 -2 -28 -6 -59 -9 -31 -4 -67 -9 -80 -12 -13 -2 -44
-9 -69 -14 -120 -24 -297 -96 -405 -166 -343 -218 -546 -564 -614 -1044 -9
-64 -8 -872 4 -2105 10 -1087 14 -1630 16 -2388 0 -412 3 -757 6 -767 5 -19
28 -19 689 -17 676 2 684 2 685 22 1 43 0 293 -7 1370 -9 1613 -10 2739 -2
2820 31 293 98 450 205 486 51 16 127 -2 200 -50 36 -23 255 -233 574 -552
1050 -1046 1199 -1192 1200 -1178 1 23 -2 465 -6 794 -15 1138 -15 1167 -28
1180 -176 182 -744 761 -863 880 -270 268 -383 370 -539 485 -263 193 -451
260 -747 265 -86 1 -158 1 -160 0z"/>
</g>
</svg>
