<?xml version="1.0" standalone="no"?>
<!DOCTYPE svg PUBLIC "-//W3C//DTD SVG 20010904//EN"
 "http://www.w3.org/TR/2001/REC-SVG-20010904/DTD/svg10.dtd">
<svg version="1.0" xmlns="http://www.w3.org/2000/svg"
 width="700.000000pt" height="700.000000pt" viewBox="0 0 700.000000 700.000000"
 preserveAspectRatio="xMidYMid meet">
<metadata>
Created by potrace 1.14, written by Peter Selinger 2001-2017
</metadata>
<g transform="translate(0.000000,700.000000) scale(0.100000,-0.100000)"
fill="#000000" stroke="none">
<path d="M3447 6814 c-1 -1 -58 -4 -127 -7 -911 -42 -1794 -490 -2381 -1207
-303 -370 -502 -757 -643 -1250 -23 -80 -38 -153 -62 -295 -8 -49 -17 -100
-19 -113 -2 -12 -7 -57 -11 -100 -3 -42 -8 -93 -10 -112 -5 -52 -5 -441 0
-470 2 -14 7 -56 11 -95 3 -38 8 -81 10 -95 2 -14 7 -45 10 -70 3 -25 7 -54 9
-65 2 -11 14 -67 26 -125 35 -170 94 -365 165 -545 39 -99 155 -337 206 -423
24 -40 49 -80 54 -90 59 -100 190 -278 315 -427 59 -71 293 -298 380 -369 52
-43 104 -86 115 -95 20 -16 57 -42 190 -132 203 -137 505 -284 755 -369 67
-23 75 -25 200 -59 79 -22 287 -67 355 -76 98 -14 175 -22 270 -30 58 -5 428
-6 465 -1 14 2 61 7 105 10 70 6 168 19 230 31 118 21 251 52 350 81 818 238
1493 761 1943 1506 48 80 170 325 207 418 118 291 209 654 230 920 3 36 8 85
10 110 6 60 6 376 0 470 -5 66 -30 271 -40 325 -4 21 -33 166 -40 200 -3 11
-18 70 -35 130 -151 543 -440 1036 -844 1441 -78 77 -163 158 -190 180 -27 21
-58 47 -70 58 -170 148 -517 360 -756 461 -36 15 -74 31 -85 36 -177 76 -477
162 -683 195 -15 2 -36 6 -47 9 -11 2 -49 7 -85 10 -36 4 -71 8 -78 10 -10 4
-115 9 -350 19 -29 1 -53 1 -55 0z m-23 -278 c33 -24 117 -102 186 -173 l125
-128 0 -153 0 -153 -30 33 c-17 18 -58 65 -90 103 -33 39 -74 86 -90 105 -93
108 -121 122 -145 73 -11 -22 -14 -108 -16 -383 -1 -195 -3 -362 -3 -370 -1
-13 -20 -15 -113 -15 -62 -1 -115 3 -118 7 -3 4 -5 229 -5 500 0 472 1 495 20
531 28 55 72 75 153 71 57 -4 71 -9 126 -48z m627 7 c0 -5 1 -195 3 -423 1
-278 -2 -434 -10 -471 -13 -68 -42 -118 -82 -141 -31 -19 -126 -37 -162 -31
-66 10 -144 76 -277 236 -68 81 -73 91 -73 135 -1 26 -2 91 -3 145 -1 53 0 97
2 97 5 0 58 -56 146 -155 147 -166 150 -168 178 -161 45 11 45 8 46 439 l1
337 115 0 c63 0 115 -3 116 -7z m-341 -1397 c14 -3 43 -8 65 -11 22 -3 67 -12
100 -20 471 -109 868 -420 1095 -857 58 -113 131 -311 144 -392 4 -21 8 -48
11 -60 25 -113 36 -307 23 -431 -14 -135 -19 -171 -43 -265 -98 -392 -319
-717 -650 -955 -181 -131 -466 -250 -668 -280 -17 -3 -59 -9 -92 -14 -62 -10
-358 -7 -430 4 -164 25 -380 95 -529 173 -241 124 -459 320 -613 552 -102 152
-196 365 -229 515 -1 6 -5 24 -9 40 -23 106 -36 228 -36 350 -1 148 4 201 36
363 24 124 93 310 161 434 260 470 713 782 1239 852 97 13 374 14 425 2z
m2521 -1096 l46 0 -1 -132 -1 -133 -332 -1 c-224 0 -334 3 -336 10 -8 24 1
163 11 181 44 77 61 80 337 78 127 -2 251 -3 276 -3z m-5074 -16 c310 -77 480
-404 369 -711 -49 -137 -180 -263 -326 -314 -69 -24 -215 -32 -294 -16 -80 15
-188 77 -257 146 -286 286 -168 757 222 890 71 24 201 26 286 5z m5114 -399
c0 -8 0 -35 0 -60 0 -25 0 -78 0 -119 l-1 -73 -335 0 -335 0 0 133 0 134 335
0 c291 0 335 -2 336 -15z m-1 -520 l0 -135 -27 0 c-16 -1 -145 -1 -287 0 -247
0 -261 1 -294 22 -46 28 -62 71 -62 166 l0 80 335 0 335 1 0 -134z m-2317
-1534 c16 -1 17 -12 15 -132 l-3 -131 -315 -3 c-330 -2 -363 -6 -373 -46 -5
-19 23 -69 60 -106 83 -85 229 -248 231 -257 2 -9 -37 -12 -143 -11 l-146 1
-40 44 c-70 77 -154 194 -179 251 -22 46 -25 68 -24 154 1 114 15 154 67 186
44 26 92 39 184 46 43 3 79 6 80 7 2 1 558 -1 586 -3z m-207 -421 c73 -78 143
-174 175 -238 31 -62 33 -74 34 -167 0 -121 -13 -157 -68 -192 -66 -42 -150
-50 -533 -52 l-351 -2 0 133 0 133 316 1 c332 0 384 6 394 44 5 19 -12 61 -35
84 -7 7 -51 55 -98 106 -47 51 -94 103 -105 115 -11 12 -30 32 -42 46 l-23 25
151 1 150 1 35 -38z"/>
<path d="M4460 4539 c-112 -42 -190 -70 -390 -139 -113 -40 -281 -99 -375
-132 -93 -33 -195 -68 -225 -78 -30 -11 -80 -28 -110 -39 -30 -10 -126 -44
-212 -75 -87 -30 -162 -57 -167 -60 -4 -3 -23 -47 -41 -98 -18 -51 -43 -122
-55 -158 -47 -132 -95 -268 -130 -370 -20 -58 -45 -127 -55 -155 -89 -240
-269 -776 -264 -789 3 -9 11 -16 16 -16 10 0 236 77 398 135 41 15 156 56 255
90 99 35 266 93 370 130 105 37 208 73 230 80 106 35 301 107 306 113 6 7 46
119 184 517 129 372 226 649 235 670 7 15 85 243 125 362 2 7 -4 17 -15 23
-22 12 -13 13 -80 -11z m-957 -1097 c232 -232 423 -426 424 -430 2 -4 -41 -22
-95 -40 -53 -18 -140 -48 -192 -67 -52 -19 -194 -68 -315 -110 -121 -42 -229
-80 -240 -85 -11 -4 -94 -34 -185 -66 -91 -31 -208 -72 -260 -91 -100 -35
-130 -44 -130 -38 0 5 100 296 110 320 5 11 26 72 48 135 22 63 57 162 77 220
59 168 115 328 147 420 16 47 35 99 42 115 7 17 25 72 41 122 l29 93 39 -38
c21 -20 228 -227 460 -460z"/>
<path d="M989 3779 c-146 -22 -240 -141 -226 -289 5 -62 37 -130 80 -171 62
-59 184 -86 268 -58 81 27 152 104 174 189 48 182 -110 357 -296 329z"/>
</g>
</svg>
